<svg xmlns="http://www.w3.org/2000/svg" version="1.1" xmlns:xlink="http://www.w3.org/1999/xlink" xmlns:svgjs="http://svgjs.dev/svgjs" width="2000" height="1500" viewBox="0 0 2000 1500"><rect width="2000" height="1500" fill="#ffffff"></rect><g transform="matrix(0.75,0,0,0.75,249.090909090909,591.6405100152638)"><svg viewBox="0 0 396 84" data-background-color="#ffffff" preserveAspectRatio="xMidYMid meet" height="424" width="2000" xmlns="http://www.w3.org/2000/svg" xmlns:xlink="http://www.w3.org/1999/xlink"><g id="tight-bounds" transform="matrix(1,0,0,1,0.2400000000000091,-0.1620355159514304)"><svg viewBox="0 0 395.52 84.32407103190286" height="84.32407103190286" width="395.52"><g><svg viewBox="0 0 428.25912727272726 91.30398732859572" height="84.32407103190286" width="395.52"><g><svg viewBox="0 0 428.25912727272726 91.30398732859572" height="91.30398732859572" width="428.25912727272726"><g id="textblocktransform"><svg viewBox="0 0 428.25912727272726 91.30398732859572" height="91.30398732859572" width="428.25912727272726" id="textblock"><g><svg viewBox="0 0 428.25912727272726 60.8368" height="60.8368" width="428.25912727272726"><g><svg><g></g><g></g></svg></g><g><svg><g></g><g><svg></svg></g></svg></g><g id="text-0"><svg viewBox="0 0 428.25912727272726 60.8368" height="60.8368" width="428.25912727272726"><g transform="matrix(1,0,0,1,0,11.618399999999998)"><svg width="137.55" viewBox="0.5 -37 137.54 37.6" height="37.6" data-palette-color="#264f0b"><path d="M13.1 0.6L13.1 0.6Q9.35 0.6 7.18-1.88 5-4.35 5-8.95L5-8.95 5-21.15 0.5-21.15 0.5-25.05 5.1-25.05 6.05-33.25 9.5-33.25 9.5-25.05 16.7-25.05 16.7-21.15 9.5-21.15 9.5-8.6Q9.5-5.7 10.73-4.55 11.95-3.4 13.65-3.4L13.65-3.4Q14.9-3.4 16.03-3.8 17.15-4.2 18.1-4.75L18.1-4.75 19.35-1.15Q18.35-0.55 16.65 0.03 14.95 0.6 13.1 0.6ZM28.35 0L23.85 0 23.85-26 28.2-26 28.2-20.35Q28.85-22 29.95-23.43 31.05-24.85 32.7-25.73 34.35-26.6 36.55-26.6L36.55-26.6Q37.3-26.6 38.05-26.53 38.8-26.45 39.3-26.3L39.3-26.3 37.95-21.65Q37-22.05 35.7-22.05L35.7-22.05Q33.85-22.05 32.17-21 30.5-19.95 29.42-17.75 28.35-15.55 28.35-12.15L28.35-12.15 28.35 0ZM52.25 0.6L52.25 0.6Q49 0.6 46.34-1.05 43.7-2.7 42.12-5.73 40.55-8.75 40.55-12.85L40.55-12.85Q40.55-16.75 42.12-19.85 43.7-22.95 46.47-24.78 49.25-26.6 52.84-26.6L52.84-26.6Q55.09-26.6 56.92-25.83 58.75-25.05 60.09-23.9L60.09-23.9 60.09-26 64.2-26 64.2-6.3Q64.2-4.4 65.12-3.83 66.05-3.25 67.15-3.25L67.15-3.25 66.2 0.25Q61.4 0.25 60.4-3.65L60.4-3.65Q59.25-2.05 57.27-0.73 55.3 0.6 52.25 0.6ZM53.25-3.4L53.25-3.4Q55.15-3.4 56.84-4.33 58.55-5.25 59.7-6.65L59.7-6.65 59.7-20.6Q58.34-21.55 56.72-22.13 55.09-22.7 53.3-22.7L53.3-22.7Q50.9-22.7 49.07-21.48 47.25-20.25 46.2-18.07 45.15-15.9 45.15-13L45.15-13Q45.15-10.2 46.2-8.03 47.25-5.85 49.09-4.63 50.95-3.4 53.25-3.4ZM83.79 0L79.09 0 68.64-24.8 72.74-26.5 81.59-5.1 90.44-26.5 94.29-24.8 83.79 0ZM108.19 0.6L108.19 0.6Q102.59 0.6 99.32-2.98 96.04-6.55 96.04-13L96.04-13Q96.04-16.9 97.52-19.98 98.99-23.05 101.64-24.83 104.29-26.6 107.79-26.6L107.79-26.6Q111.54-26.6 114.02-24.98 116.49-23.35 117.74-20.6 118.99-17.85 118.99-14.55L118.99-14.55Q118.99-12.8 118.84-11.15L118.84-11.15 100.64-11.15Q101.09-7.5 103.19-5.45 105.29-3.4 108.74-3.4L108.74-3.4Q110.99-3.4 112.79-3.88 114.59-4.35 116.24-5.1L116.24-5.1 117.29-1.25Q115.49-0.45 113.24 0.08 110.99 0.6 108.19 0.6ZM100.59-14.8L100.59-14.8 114.84-14.8Q114.84-18.6 112.94-20.65 111.04-22.7 107.69-22.7L107.69-22.7Q104.79-22.7 102.89-20.68 100.99-18.65 100.59-14.8ZM132.89 0.6L132.89 0.6Q130.59 0.6 128.74-0.28 126.89-1.15 125.81-3.1 124.74-5.05 124.74-8.15L124.74-8.15 124.74-37 129.24-37 129.24-8.6Q129.24-5.9 130.36-4.6 131.49-3.3 133.49-3.3L133.49-3.3Q134.44-3.3 135.36-3.53 136.29-3.75 136.94-4.05L136.94-4.05 138.04-0.4Q137.14 0 135.81 0.3 134.49 0.6 132.89 0.6Z" opacity="1" transform="matrix(1,0,0,1,0,0)" fill="#264f0b" class="undefined-tk-0"></path></svg></g><g><svg xmlns="http://www.w3.org/2000/svg" xml:space="preserve" viewBox="0 6 100 88" x="151.91320000000002" y="0" height="60.8368" width="69.13272727272727" class="icon-dxe-0" data-fill-palette-color="accent" id="dxe-0"><path d="M87.443 45.365c-0.537-1.955-5.529-2.123-7.537-1.454L57.991 51.2 32.634 41.074l-2.676 2.854 10.852 13.03c-6.995 2.418-19.806 6.884-22.131 7.655-2.001 0.666 12.936 2.785 16.36 2.217 0 0 26.313-8.582 37.945-12.453l8.972-2.984c2-0.666 6.069-3.909 5.487-6.028" fill="#fd6c23" data-fill-palette-color="accent"></path><path d="M14.533 55.344L12.5 57.221l5.39 6.289 7.812-2.752z" fill="#fd6c23" data-fill-palette-color="accent"></path><path d="M94 6H6a6 6 0 0 0-6 6v76a6 6 0 0 0 6 6h88a6 6 0 0 0 6-6V12a6 6 0 0 0-6-6m-15 4c2.205 0 4 1.794 4 4s-1.795 4-4 4-4-1.794-4-4 1.795-4 4-4m-11 0c2.205 0 4 1.794 4 4s-1.795 4-4 4-4-1.794-4-4 1.795-4 4-4m26 78H6V22h88z m-4-70c-2.205 0-4-1.794-4-4s1.795-4 4-4 4 1.794 4 4-1.795 4-4 4" fill="#fd6c23" data-fill-palette-color="accent"></path></svg></g><g transform="matrix(1,0,0,1,235.4091272727273,11.618400000000001)"><svg width="192.84999999999997" viewBox="1.25 -37 192.83 37.6" height="37.599999999999994" data-palette-color="#264f0b"><path d="M14.4 0L9.45 0 1.25-24.8 5.4-26.25 12.1-5.1 18.2-24.15 23.05-24.15 29-5.1 35.65-26.25 39.65-24.8 31.4 0 26.45 0 20.45-19.35 14.4 0ZM49.4 0L44.9 0 44.9-26 49.4-26 49.4 0ZM47.15-30.45L47.15-30.45Q45.85-30.45 44.92-31.4 44-32.35 44-33.6L44-33.6Q44-35.05 44.85-35.9 45.7-36.75 47.15-36.75L47.15-36.75Q48.45-36.75 49.37-35.83 50.3-34.9 50.3-33.6L50.3-33.6Q50.3-32.2 49.45-31.33 48.6-30.45 47.15-30.45ZM66.5 0.6L66.5 0.6Q62.75 0.6 60.57-1.88 58.4-4.35 58.4-8.95L58.4-8.95 58.4-21.15 53.9-21.15 53.9-25.05 58.5-25.05 59.45-33.25 62.9-33.25 62.9-25.05 70.1-25.05 70.1-21.15 62.9-21.15 62.9-8.6Q62.9-5.7 64.12-4.55 65.35-3.4 67.05-3.4L67.05-3.4Q68.3-3.4 69.42-3.8 70.55-4.2 71.5-4.75L71.5-4.75 72.75-1.15Q71.75-0.55 70.05 0.03 68.35 0.6 66.5 0.6ZM81.74 0L77.24 0 77.24-37 81.74-37 81.74-21.85Q83.14-23.9 85.29-25.25 87.44-26.6 90.34-26.6L90.34-26.6Q94.74-26.6 96.92-23.95 99.09-21.3 99.09-16.95L99.09-16.95 99.09 0 94.59 0 94.59-16.45Q94.59-19.25 93.29-20.95 91.99-22.65 89.64-22.65L89.64-22.65Q87.34-22.65 85.27-21.03 83.19-19.4 81.74-17.2L81.74-17.2 81.74 0ZM126.34 0L121.84 0 121.84-37 126.34-37 126.34-21.85Q127.74-23.9 129.89-25.25 132.04-26.6 134.94-26.6L134.94-26.6Q139.34-26.6 141.51-23.95 143.69-21.3 143.69-16.95L143.69-16.95 143.69 0 139.19 0 139.19-16.45Q139.19-19.25 137.89-20.95 136.59-22.65 134.24-22.65L134.24-22.65Q131.94-22.65 129.86-21.03 127.79-19.4 126.34-17.2L126.34-17.2 126.34 0ZM161.84 0.6L161.84 0.6Q156.24 0.6 152.96-2.98 149.69-6.55 149.69-13L149.69-13Q149.69-16.9 151.16-19.98 152.63-23.05 155.28-24.83 157.94-26.6 161.44-26.6L161.44-26.6Q165.19-26.6 167.66-24.98 170.13-23.35 171.38-20.6 172.63-17.85 172.63-14.55L172.63-14.55Q172.63-12.8 172.49-11.15L172.49-11.15 154.28-11.15Q154.74-7.5 156.84-5.45 158.94-3.4 162.38-3.4L162.38-3.4Q164.63-3.4 166.44-3.88 168.24-4.35 169.88-5.1L169.88-5.1 170.94-1.25Q169.13-0.45 166.88 0.08 164.63 0.6 161.84 0.6ZM154.24-14.8L154.24-14.8 168.49-14.8Q168.49-18.6 166.59-20.65 164.69-22.7 161.34-22.7L161.34-22.7Q158.44-22.7 156.53-20.68 154.63-18.65 154.24-14.8ZM183.13 0L178.63 0 178.63-26 182.98-26 182.98-20.35Q183.63-22 184.73-23.43 185.83-24.85 187.48-25.73 189.13-26.6 191.33-26.6L191.33-26.6Q192.08-26.6 192.83-26.53 193.58-26.45 194.08-26.3L194.08-26.3 192.73-21.65Q191.78-22.05 190.48-22.05L190.48-22.05Q188.63-22.05 186.96-21 185.28-19.95 184.21-17.75 183.13-15.55 183.13-12.15L183.13-12.15 183.13 0Z" opacity="1" transform="matrix(1,0,0,1,0,0)" fill="#264f0b" class="undefined-tk-1"></path></svg></g></svg></g></svg></g><g transform="matrix(1,0,0,1,81.7974933090909,69.71325759999999)"><svg viewBox="0 0 264.66414065454546 21.590729728595736" height="21.590729728595736" width="264.66414065454546"><g transform="matrix(1,0,0,1,0,0)"><svg width="264.66414065454546" viewBox="2.5 -37.6 595.69 48.6" height="21.590729728595736" data-palette-color="#264f0b"><path d="M17.95 0.6L17.95 0.6Q13.4 0.6 9.9-1.58 6.4-3.75 4.45-7.78 2.5-11.8 2.5-17.35L2.5-17.35Q2.5-22.7 4.48-26.83 6.45-30.95 10.08-33.27 13.7-35.6 18.55-35.6L18.55-35.6Q21.05-35.6 23.1-35.13 25.15-34.65 26.95-33.8L26.95-33.8 25.5-29.8Q23.95-30.55 22.33-31 20.7-31.45 18.5-31.45L18.5-31.45Q15.3-31.45 12.78-29.8 10.25-28.15 8.8-25.05 7.35-21.95 7.35-17.55L7.35-17.55Q7.35-13.35 8.78-10.2 10.2-7.05 12.73-5.3 15.25-3.55 18.5-3.55L18.5-3.55Q20.95-3.55 22.75-4.15 24.55-4.75 26.25-5.7L26.25-5.7 27.7-1.75Q25.85-0.75 23.48-0.08 21.1 0.6 17.95 0.6ZM43.15 0.6L43.15 0.6Q39.45 0.6 36.5-1.13 33.55-2.85 31.87-5.93 30.2-9 30.2-13L30.2-13Q30.2-17.2 31.9-20.25 33.6-23.3 36.55-24.95 39.5-26.6 43.15-26.6L43.15-26.6Q46.8-26.6 49.72-24.95 52.65-23.3 54.37-20.28 56.1-17.25 56.1-13.1L56.1-13.1Q56.1-8.95 54.4-5.88 52.7-2.8 49.77-1.1 46.85 0.6 43.15 0.6ZM43.15-3.4L43.15-3.4Q47.1-3.4 49.3-6.08 51.5-8.75 51.5-13L51.5-13Q51.5-15.6 50.4-17.78 49.3-19.95 47.42-21.28 45.55-22.6 43.15-22.6L43.15-22.6Q39.2-22.6 37-20 34.8-17.4 34.8-13.1L34.8-13.1Q34.8-10.5 35.9-8.28 37-6.05 38.87-4.73 40.75-3.4 43.15-3.4ZM66.59 0L62.1 0 62.1-26 66.45-26 66.45-21.65Q67.84-23.75 70.02-25.18 72.2-26.6 75.2-26.6L75.2-26.6Q79.59-26.6 81.77-23.95 83.95-21.3 83.95-16.95L83.95-16.95 83.95 0 79.45 0 79.45-16.45Q79.45-19.25 78.12-20.95 76.8-22.65 74.45-22.65L74.45-22.65Q72.15-22.65 70.09-21.03 68.05-19.4 66.59-17.2L66.59-17.2 66.59 0ZM96.19 0L91.69 0 91.69-26 96.04-26 96.04-21.65Q97.44-23.75 99.62-25.18 101.79-26.6 104.79-26.6L104.79-26.6Q109.19-26.6 111.37-23.95 113.54-21.3 113.54-16.95L113.54-16.95 113.54 0 109.04 0 109.04-16.45Q109.04-19.25 107.72-20.95 106.39-22.65 104.04-22.65L104.04-22.65Q101.74-22.65 99.69-21.03 97.64-19.4 96.19-17.2L96.19-17.2 96.19 0ZM131.69 0.6L131.69 0.6Q126.09 0.6 122.82-2.98 119.54-6.55 119.54-13L119.54-13Q119.54-16.9 121.02-19.98 122.49-23.05 125.14-24.83 127.79-26.6 131.29-26.6L131.29-26.6Q135.04-26.6 137.52-24.98 139.99-23.35 141.24-20.6 142.49-17.85 142.49-14.55L142.49-14.55Q142.49-12.8 142.34-11.15L142.34-11.15 124.14-11.15Q124.59-7.5 126.69-5.45 128.79-3.4 132.24-3.4L132.24-3.4Q134.49-3.4 136.29-3.88 138.09-4.35 139.74-5.1L139.74-5.1 140.79-1.25Q138.99-0.45 136.74 0.08 134.49 0.6 131.69 0.6ZM124.09-14.8L124.09-14.8 138.34-14.8Q138.34-18.6 136.44-20.65 134.54-22.7 131.19-22.7L131.19-22.7Q128.29-22.7 126.39-20.68 124.49-18.65 124.09-14.8ZM158.99 0.6L158.99 0.6Q155.29 0.6 152.51-1.13 149.74-2.85 148.24-5.93 146.74-9 146.74-13L146.74-13Q146.74-16.75 148.26-19.85 149.79-22.95 152.64-24.78 155.49-26.6 159.34-26.6L159.34-26.6Q161.54-26.6 163.21-26.2 164.89-25.8 166.44-25.05L166.44-25.05 165.09-21.25Q163.69-21.95 162.41-22.28 161.14-22.6 159.59-22.6L159.59-22.6Q156.09-22.6 153.71-20.08 151.34-17.55 151.34-13.1L151.34-13.1Q151.34-10.4 152.34-8.2 153.34-6 155.11-4.7 156.89-3.4 159.29-3.4L159.29-3.4Q161.19-3.4 162.54-3.83 163.89-4.25 165.44-5.05L165.44-5.05 166.84-1.25Q165.29-0.4 163.36 0.1 161.44 0.6 158.99 0.6ZM181.19 0.6L181.19 0.6Q177.44 0.6 175.26-1.88 173.09-4.35 173.09-8.95L173.09-8.95 173.09-21.15 168.59-21.15 168.59-25.05 173.19-25.05 174.14-33.25 177.59-33.25 177.59-25.05 184.78-25.05 184.78-21.15 177.59-21.15 177.59-8.6Q177.59-5.7 178.81-4.55 180.03-3.4 181.74-3.4L181.74-3.4Q182.99-3.4 184.11-3.8 185.24-4.2 186.19-4.75L186.19-4.75 187.44-1.15Q186.44-0.55 184.74 0.03 183.03 0.6 181.19 0.6ZM191.88 8L191.88 8 189.43 6.6Q191.43 4.05 192.66 1.45 193.88-1.15 194.53-4.5L194.53-4.5 198.93-3.25Q198.43 0.55 196.56 3.4 194.68 6.25 191.88 8ZM243.43 0L222.43 0 222.43-35 243.43-35 243.43-30.9 227.18-30.9 227.18-20.25 241.18-20.25 241.18-16.25 227.18-16.25 227.18-4.1 243.43-4.1 243.43 0ZM270.18-2.45L266.78 0.45 258.03-10.4 249.38 0.35 246.18-2.45 255.43-13.2 246.53-23.5 250.03-26.55 258.07-16.15 265.98-26.35 269.32-23.5 260.68-13.4 270.18-2.45ZM280.12 11L275.62 11 275.62-19.35Q275.62-21.05 274.8-21.78 273.97-22.5 272.67-22.5L272.67-22.5 273.62-26Q278.22-26 279.37-22.35L279.37-22.35Q279.87-23.1 281-24.1 282.12-25.1 283.8-25.85 285.47-26.6 287.62-26.6L287.62-26.6Q290.62-26.6 293.25-25.03 295.87-23.45 297.47-20.48 299.07-17.5 299.07-13.25L299.07-13.25Q299.07-9.1 297.47-5.98 295.87-2.85 293.3-1.13 290.72 0.6 287.72 0.6L287.72 0.6Q285.42 0.6 283.42-0.33 281.42-1.25 280.12-2.45L280.12-2.45 280.12 11ZM286.82-3.4L286.82-3.4Q290.22-3.4 292.35-6.08 294.47-8.75 294.47-13.1L294.47-13.1Q294.47-16.1 293.4-18.25 292.32-20.4 290.55-21.55 288.77-22.7 286.62-22.7L286.62-22.7Q284.47-22.7 282.75-21.63 281.02-20.55 280.12-19.3L280.12-19.3 280.12-6.5Q281.42-5.15 283.12-4.28 284.82-3.4 286.82-3.4ZM313.22 0.6L313.22 0.6Q310.92 0.6 309.07-0.28 307.22-1.15 306.14-3.1 305.07-5.05 305.07-8.15L305.07-8.15 305.07-37 309.57-37 309.57-8.6Q309.57-5.9 310.69-4.6 311.82-3.3 313.82-3.3L313.82-3.3Q314.77-3.3 315.69-3.53 316.62-3.75 317.27-4.05L317.27-4.05 318.37-0.4Q317.47 0 316.14 0.3 314.82 0.6 313.22 0.6ZM332.82 0.6L332.82 0.6Q329.12 0.6 326.17-1.13 323.22-2.85 321.54-5.93 319.87-9 319.87-13L319.87-13Q319.87-17.2 321.57-20.25 323.27-23.3 326.22-24.95 329.17-26.6 332.82-26.6L332.82-26.6Q336.47-26.6 339.39-24.95 342.32-23.3 344.04-20.28 345.77-17.25 345.77-13.1L345.77-13.1Q345.77-8.95 344.07-5.88 342.37-2.8 339.44-1.1 336.52 0.6 332.82 0.6ZM332.82-3.4L332.82-3.4Q336.77-3.4 338.97-6.08 341.17-8.75 341.17-13L341.17-13Q341.17-15.6 340.07-17.78 338.97-19.95 337.09-21.28 335.22-22.6 332.82-22.6L332.82-22.6Q328.87-22.6 326.67-20 324.47-17.4 324.47-13.1L324.47-13.1Q324.47-10.5 325.57-8.28 326.67-6.05 328.54-4.73 330.42-3.4 332.82-3.4ZM356.26 0L351.76 0 351.76-26 356.12-26 356.12-20.35Q356.76-22 357.87-23.43 358.96-24.85 360.62-25.73 362.26-26.6 364.46-26.6L364.46-26.6Q365.21-26.6 365.96-26.53 366.71-26.45 367.21-26.3L367.21-26.3 365.87-21.65Q364.91-22.05 363.62-22.05L363.62-22.05Q361.76-22.05 360.09-21 358.41-19.95 357.34-17.75 356.26-15.55 356.26-12.15L356.26-12.15 356.26 0ZM380.61 0.6L380.61 0.6Q375.01 0.6 371.74-2.98 368.46-6.55 368.46-13L368.46-13Q368.46-16.9 369.94-19.98 371.41-23.05 374.06-24.83 376.71-26.6 380.21-26.6L380.21-26.6Q383.96-26.6 386.44-24.98 388.91-23.35 390.16-20.6 391.41-17.85 391.41-14.55L391.41-14.55Q391.41-12.8 391.26-11.15L391.26-11.15 373.06-11.15Q373.51-7.5 375.61-5.45 377.71-3.4 381.16-3.4L381.16-3.4Q383.41-3.4 385.21-3.88 387.01-4.35 388.66-5.1L388.66-5.1 389.71-1.25Q387.91-0.45 385.66 0.08 383.41 0.6 380.61 0.6ZM373.01-14.8L373.01-14.8 387.26-14.8Q387.26-18.6 385.36-20.65 383.46-22.7 380.11-22.7L380.11-22.7Q377.21-22.7 375.31-20.68 373.41-18.65 373.01-14.8ZM397.36 8L397.36 8 394.91 6.6Q396.91 4.05 398.13 1.45 399.36-1.15 400.01-4.5L400.01-4.5 404.41-3.25Q403.91 0.55 402.03 3.4 400.16 6.25 397.36 8ZM438 0.4L438 0.4Q434.95 0.4 432.23 0.25 429.5 0.1 427.9-0.1L427.9-0.1 427.9-34.9Q429.65-35.1 432.25-35.25 434.85-35.4 438.2-35.4L438.2-35.4Q444.6-35.4 448.05-32.98 451.5-30.55 451.5-26.4L451.5-26.4Q451.5-23.65 450.03-21.73 448.55-19.8 445.75-18.55L445.75-18.55Q449.15-17.35 450.9-15.23 452.65-13.1 452.65-10L452.65-10Q452.65-5.25 448.9-2.43 445.15 0.4 438 0.4ZM432.65-31.3L432.65-19.9 438.15-19.9Q442.1-19.9 444.43-21.55 446.75-23.2 446.75-25.8L446.75-25.8Q446.75-28.6 444.45-30.08 442.15-31.55 438.15-31.55L438.15-31.55Q436.5-31.55 435.15-31.48 433.8-31.4 432.65-31.3L432.65-31.3ZM438.35-3.55L438.35-3.55Q442.8-3.55 445.3-5.15 447.8-6.75 447.8-9.8L447.8-9.8Q447.8-12.8 445.35-14.5 442.9-16.2 438.35-16.2L438.35-16.2 432.65-16.2 432.65-3.85Q435.3-3.55 438.35-3.55ZM469.3 0.6L469.3 0.6Q463.7 0.6 460.43-2.98 457.15-6.55 457.15-13L457.15-13Q457.15-16.9 458.63-19.98 460.1-23.05 462.75-24.83 465.4-26.6 468.9-26.6L468.9-26.6Q472.65-26.6 475.13-24.98 477.6-23.35 478.85-20.6 480.1-17.85 480.1-14.55L480.1-14.55Q480.1-12.8 479.95-11.15L479.95-11.15 461.75-11.15Q462.2-7.5 464.3-5.45 466.4-3.4 469.85-3.4L469.85-3.4Q472.1-3.4 473.9-3.88 475.7-4.35 477.35-5.1L477.35-5.1 478.4-1.25Q476.6-0.45 474.35 0.08 472.1 0.6 469.3 0.6ZM461.7-14.8L461.7-14.8 475.95-14.8Q475.95-18.6 474.05-20.65 472.15-22.7 468.8-22.7L468.8-22.7Q465.9-22.7 464-20.68 462.1-18.65 461.7-14.8ZM510.3 0.6L510.3 0.6Q506.65 0.6 503.65-0.38 500.65-1.35 498.6-2.95L498.6-2.95 501-6.95Q502.8-5.45 505.05-4.5 507.3-3.55 510.3-3.55L510.3-3.55Q513.9-3.55 516-5.05 518.1-6.55 518.1-9.1L518.1-9.1Q518.1-10.55 517.5-11.68 516.9-12.8 515.17-13.88 513.45-14.95 510.1-16.2L510.1-16.2Q506.5-17.6 504.35-19.03 502.2-20.45 501.27-22.28 500.35-24.1 500.35-26.6L500.35-26.6Q500.35-29.1 501.72-31.13 503.1-33.15 505.77-34.38 508.45-35.6 512.25-35.6L512.25-35.6Q515.35-35.6 517.82-34.98 520.3-34.35 522.65-33.2L522.65-33.2 520.9-29.15Q519.2-30.15 516.92-30.83 514.65-31.5 512.15-31.5L512.15-31.5Q508.85-31.5 506.95-30.2 505.05-28.9 505.05-26.85L505.05-26.85Q505.05-25.55 505.6-24.55 506.15-23.55 507.77-22.6 509.4-21.65 512.65-20.45L512.65-20.45Q516.55-19 518.82-17.4 521.1-15.8 522.05-13.93 523-12.05 523-9.65L523-9.65Q523-6.4 521.37-4.1 519.75-1.8 516.87-0.6 514 0.6 510.3 0.6ZM539.44 0.6L539.44 0.6Q536.19 0.6 533.54-1.05 530.89-2.7 529.32-5.73 527.74-8.75 527.74-12.85L527.74-12.85Q527.74-16.75 529.32-19.85 530.89-22.95 533.67-24.78 536.44-26.6 540.04-26.6L540.04-26.6Q542.29-26.6 544.12-25.83 545.94-25.05 547.29-23.9L547.29-23.9 547.29-26 551.39-26 551.39-6.3Q551.39-4.4 552.32-3.83 553.24-3.25 554.34-3.25L554.34-3.25 553.39 0.25Q548.59 0.25 547.59-3.65L547.59-3.65Q546.44-2.05 544.47-0.73 542.49 0.6 539.44 0.6ZM540.44-3.4L540.44-3.4Q542.34-3.4 544.04-4.33 545.74-5.25 546.89-6.65L546.89-6.65 546.89-20.6Q545.54-21.55 543.92-22.13 542.29-22.7 540.49-22.7L540.49-22.7Q538.09-22.7 536.27-21.48 534.44-20.25 533.39-18.07 532.34-15.9 532.34-13L532.34-13Q532.34-10.2 533.39-8.03 534.44-5.85 536.29-4.63 538.14-3.4 540.44-3.4ZM565.34 0L560.84 0 560.84-21.15 556.84-21.15 556.84-25.05 560.84-25.05 560.84-28.1Q560.84-32.5 563.29-35.05 565.74-37.6 569.69-37.6L569.69-37.6Q571.74-37.6 573.29-37.13 574.84-36.65 576.24-35.95L576.24-35.95 574.89-32.15Q573.84-32.7 572.64-33.15 571.44-33.6 569.99-33.6L569.99-33.6Q567.89-33.6 566.62-32.27 565.34-30.95 565.34-28.4L565.34-28.4 565.34-25.05 573.04-25.05 573.04-21.15 565.34-21.15 565.34 0ZM587.39 0.6L587.39 0.6Q581.79 0.6 578.51-2.98 575.24-6.55 575.24-13L575.24-13Q575.24-16.9 576.71-19.98 578.19-23.05 580.84-24.83 583.49-26.6 586.99-26.6L586.99-26.6Q590.74-26.6 593.21-24.98 595.69-23.35 596.94-20.6 598.19-17.85 598.19-14.55L598.19-14.55Q598.19-12.8 598.04-11.15L598.04-11.15 579.84-11.15Q580.29-7.5 582.39-5.45 584.49-3.4 587.94-3.4L587.94-3.4Q590.19-3.4 591.99-3.88 593.79-4.35 595.44-5.1L595.44-5.1 596.49-1.25Q594.69-0.45 592.44 0.08 590.19 0.6 587.39 0.6ZM579.79-14.8L579.79-14.8 594.04-14.8Q594.04-18.6 592.14-20.65 590.24-22.7 586.89-22.7L586.89-22.7Q583.99-22.7 582.09-20.68 580.19-18.65 579.79-14.8Z" opacity="1" transform="matrix(1,0,0,1,0,0)" fill="#264f0b" class="slogan-text-1" data-fill-palette-color="secondary" id="text-1"></path></svg></g></svg></g></svg></g></svg></g></svg></g><defs></defs></svg><rect width="395.52" height="84.32407103190286" fill="none" stroke="none" visibility="hidden"></rect></g></svg></g></svg>